<svg width="33" height="33" viewBox="0 0 33 33" fill="none" xmlns="http://www.w3.org/2000/svg">
<path d="M21.6562 16.5C21.6562 17.8675 21.113 19.179 20.146 20.146C19.179 21.113 17.8675 21.6562 16.5 21.6562C15.1325 21.6562 13.821 21.113 12.854 20.146C11.887 19.179 11.3438 17.8675 11.3438 16.5C11.3438 15.1325 11.887 13.821 12.854 12.854C13.821 11.887 15.1325 11.3438 16.5 11.3438C17.8675 11.3438 19.179 11.887 20.146 12.854C21.113 13.821 21.6562 15.1325 21.6562 16.5Z" fill="black"/>
<path d="M0 16.5C0 16.5 6.1875 5.15625 16.5 5.15625C26.8125 5.15625 33 16.5 33 16.5C33 16.5 26.8125 27.8438 16.5 27.8438C6.1875 27.8438 0 16.5 0 16.5ZM16.5 23.7188C18.4145 23.7188 20.2506 22.9582 21.6044 21.6044C22.9582 20.2506 23.7188 18.4145 23.7188 16.5C23.7188 14.5855 22.9582 12.7494 21.6044 11.3956C20.2506 10.0418 18.4145 9.28125 16.5 9.28125C14.5855 9.28125 12.7494 10.0418 11.3956 11.3956C10.0418 12.7494 9.28125 14.5855 9.28125 16.5C9.28125 18.4145 10.0418 20.2506 11.3956 21.6044C12.7494 22.9582 14.5855 23.7188 16.5 23.7188Z" fill="black"/>
</svg>
